<svg width="97" height="12" viewBox="0 0 97 12" fill="none" xmlns="http://www.w3.org/2000/svg">
<path d="M90.6572 1.58203L90.7881 1.36035L91.1025 0.826172L96.3164 1.19531L92.2266 6.90625L92.0469 11.2344H87.291L87.377 6.76465L86.8428 5.37891L86.834 4.86719C86.7718 4.86966 86.7096 4.87066 86.6475 4.87305L86.0908 3.42871L86.2129 1.77344C86.0645 1.6875 85.9004 1.61523 85.7207 1.55664C85.5936 1.51519 85.4631 1.48284 85.3301 1.45508L85.3125 1.40918L90.5049 0.757812L90.6572 1.58203ZM90.1621 4.39844L89.6934 1.86719L86.7051 2.24219L88.3809 6.58984L88.3105 10.2344H91.0879L91.2402 6.56641L94.4629 2.06641L91.6504 1.86719L90.1621 4.39844Z" fill="black" fill-opacity="0.1"/>
<path d="M84.0566 0.328125C84.2552 0.328125 84.4622 0.336981 84.6768 0.354492L84.6758 0.355469C84.8938 0.369553 85.1098 0.397281 85.3242 0.436523L85.3252 0.43457C85.5656 0.473817 85.8009 0.530695 86.0303 0.605469C86.2698 0.68357 86.4991 0.783889 86.7139 0.908203L87.2559 1.22168L87.21 1.84668L87.1846 2.18164L86.7051 2.24219L87.1045 3.2793L87.0625 3.85645L87.3232 3.84668L87.8398 5.18652L87.9043 8.78711L87.9102 9.14648L87.6865 9.42773C87.4287 9.75144 87.1172 10.0248 86.7627 10.251C86.4308 10.4626 86.0764 10.637 85.7021 10.7744C85.3391 10.9077 84.9662 11.0063 84.585 11.0713L84.5859 11.0723C84.2102 11.1402 83.8418 11.1758 83.4824 11.1758C82.7939 11.1758 82.1371 11.0517 81.5254 10.791C80.9331 10.5385 80.4102 10.1858 79.9668 9.73242L79.959 9.72461C79.7074 9.46157 79.4899 9.17258 79.3037 8.86133C79.3082 8.77794 79.3118 8.69457 79.3164 8.61133C79.3438 8.18555 79.3691 7.75781 79.3926 7.32812H78.6982C78.6346 7.03155 78.5967 6.72803 78.585 6.41797L78.7246 6.41406L78.8535 4.59766H78.7871C78.8615 4.3098 78.9534 4.03065 79.0645 3.76074L79.6504 3.73047C79.6816 3.36328 79.707 3 79.7266 2.64062C79.728 2.61461 79.729 2.58856 79.7305 2.5625C79.7626 2.51786 79.7937 2.47241 79.8271 2.42871L80.0557 2.14844C80.3764 1.77583 80.7425 1.45393 81.1514 1.18457C81.5657 0.911618 82.0162 0.701614 82.498 0.553711C82.9955 0.401065 83.5169 0.328125 84.0566 0.328125ZM79.5801 6.20312C79.5801 6.76172 79.6777 7.2832 79.873 7.76758C80.0684 8.25195 80.3379 8.67383 80.6816 9.0332C81.0293 9.38867 81.4414 9.66797 81.918 9.87109C82.3945 10.0742 82.916 10.1758 83.4824 10.1758C83.7754 10.1758 84.084 10.1465 84.4082 10.0879C84.7324 10.0332 85.0488 9.94922 85.3574 9.83594C85.666 9.72266 85.9551 9.58008 86.2246 9.4082C86.4941 9.23633 86.7207 9.03516 86.9043 8.80469L86.834 4.86719C86.2441 4.89062 85.6582 4.91016 85.0762 4.92578C84.4941 4.9375 83.9121 4.95312 83.3301 4.97266L83.2598 6.73047L84.666 6.75391L84.6426 7.21094C84.5293 7.30469 84.3926 7.37109 84.2324 7.41016C84.0762 7.44922 83.9238 7.46875 83.7754 7.46875C83.5566 7.46875 83.3633 7.42383 83.1953 7.33398C83.0312 7.24414 82.8926 7.12695 82.7793 6.98242C82.6699 6.83398 82.5879 6.66602 82.5332 6.47852C82.4785 6.28711 82.4512 6.08984 82.4512 5.88672C82.4512 5.5625 82.5098 5.27148 82.627 5.01367C82.7441 4.75586 82.9023 4.53711 83.1016 4.35742C83.3047 4.17773 83.541 4.04102 83.8105 3.94727C84.084 3.84961 84.377 3.80078 84.6895 3.80078C84.9121 3.80078 85.1387 3.81641 85.3691 3.84766C85.6035 3.875 85.8301 3.92969 86.0488 4.01172L86.2129 1.77344C86.0645 1.6875 85.9004 1.61523 85.7207 1.55664C85.541 1.49805 85.3555 1.45312 85.1641 1.42188C84.9766 1.38672 84.7871 1.36328 84.5957 1.35156C84.4043 1.33594 84.2246 1.32812 84.0566 1.32812C83.6074 1.32812 83.1855 1.38867 82.791 1.50977C82.3965 1.63086 82.0332 1.80078 81.7012 2.01953C81.3691 2.23828 81.0723 2.5 80.8105 2.80469C80.5488 3.10547 80.3262 3.4375 80.1426 3.80078C79.9629 4.16016 79.8242 4.54492 79.7266 4.95508C79.6289 5.36133 79.5801 5.77734 79.5801 6.20312Z" fill="black" fill-opacity="0.1"/>
<path d="M80.8564 0.550781L80.7891 1.61426C80.7658 1.97837 80.744 2.33915 80.7246 2.69531C80.7204 2.77265 80.7147 2.85007 80.71 2.92773C80.492 3.19573 80.3018 3.4858 80.1426 3.80078C79.9629 4.16016 79.8242 4.54492 79.7266 4.95508C79.6289 5.36133 79.5801 5.77734 79.5801 6.20312C79.5801 6.76172 79.6777 7.2832 79.873 7.76758C79.9935 8.06618 80.1425 8.3407 80.3193 8.5918C80.3176 8.61967 80.3162 8.64792 80.3145 8.67578C80.2914 9.09145 80.2702 9.50914 80.251 9.92871L80.208 10.8613L73.1777 11.0244L73.3301 4.12598L73.8613 4.10547L73.9199 1.62109L73.3857 1.62207L73.3887 1.52832L73.4102 0.550781H80.8564ZM74.3887 1.55078L74.2012 10L79.252 9.88281C79.2715 9.45703 79.293 9.0332 79.3164 8.61133C79.3438 8.18555 79.3691 7.75781 79.3926 7.32812H76.9082L76.9668 6.47266L78.7246 6.41406L78.8535 4.59766H77.1074L77.166 3.85938L79.6504 3.73047C79.6816 3.36328 79.707 3 79.7266 2.64062C79.7461 2.28125 79.7676 1.91797 79.791 1.55078H74.3887Z" fill="black" fill-opacity="0.1"/>
<path d="M74.9219 1.55078H74.3887L74.3096 5.08789L73.041 5.13867L72.5967 10.6836L68.1953 10.9131L68.1973 9.85742V9.50781L68.2949 9.49609L68.1982 9.16309L68.2061 5.36035L67.5166 5.39746L67.1133 5.41797L66.4902 3.26953L66.5586 0.634766L74.9434 0.619141L74.9219 1.55078ZM67.5332 1.63281L67.4629 4.39844L69.209 4.30469L69.1973 9.85938L71.6699 9.73047L72.1152 4.17578L73.8613 4.10547L73.9199 1.62109L67.5332 1.63281Z" fill="black" fill-opacity="0.1"/>
<path d="M67.4941 3.13965L67.4629 4.39844L67.8525 4.37695L69.1982 9.02148L69.1973 9.85938L69.4375 9.84668L69.5801 10.3389L64.6475 10.9746L64.4219 10.1279L64.3965 10.0322L64.3848 10.0869L64.1934 10.9531L59.1143 10.4551L59.3564 9.64355L60.4648 9.42676L60.4199 9.57812L63.4082 9.87109L63.7012 8.54688H65.0371L65.3887 9.87109L68.2949 9.49609L66.0098 1.60938L62.752 1.77344L60.4678 9.41699L59.7861 8.2041L61.9961 0.810547L66.75 0.571289L67.4941 3.13965ZM64.8262 6.75391H63.9473L64.3809 4.71484L64.8262 6.75391Z" fill="black" fill-opacity="0.1"/>
<path d="M60.4961 4.35156C60.4961 3.86328 60.3984 3.43555 60.2031 3.06836C60.0117 2.70117 59.7559 2.39453 59.4355 2.14844C59.1152 1.90234 58.7461 1.71875 58.3281 1.59766C57.9141 1.47266 57.4844 1.41016 57.0391 1.41016C56.75 1.41016 56.4668 1.41797 56.1895 1.43359C55.916 1.44531 55.6445 1.4707 55.375 1.50977C55.1094 1.54492 54.8438 1.5957 54.5781 1.66211C54.3125 1.72852 54.043 1.8125 53.7695 1.91406C53.7461 2.36328 53.7305 2.80859 53.7227 3.25C53.7148 3.69141 53.707 4.13672 53.6992 4.58594C53.6758 5.47656 53.6543 6.36328 53.6348 7.24609C53.6191 8.12891 53.6016 9.01562 53.582 9.90625H56.1016L56.207 7.46875L56.9336 7.44531L57.8359 9.94141L60.4648 9.42676L60.4199 9.57812L61.7793 9.71094L62.0215 10.1416L57.1865 11.0869L57.0654 10.7529L57.0596 10.9062H52.5596L52.582 9.88477C52.6015 8.99558 52.6192 8.10987 52.6348 7.22852V7.22363C52.6543 6.33952 52.6757 5.45147 52.6992 4.55957C52.7017 4.41496 52.7035 4.27075 52.7061 4.12695L53.248 4.10547L53.3066 1.62109H52.7822L52.8047 1.20508L53.4209 0.976562C53.7267 0.862981 54.0323 0.768296 54.3359 0.692383C54.6332 0.618071 54.9318 0.561626 55.2314 0.521484L55.2334 0.520508C55.2369 0.52004 55.2406 0.519017 55.2441 0.518555C55.5431 0.475654 55.8438 0.447549 56.1465 0.43457C56.439 0.418343 56.7366 0.410156 57.0391 0.410156C57.5754 0.410156 58.0984 0.486795 58.6055 0.638672L58.6064 0.636719C59.1349 0.789821 59.6183 1.02769 60.0449 1.35547C60.4814 1.69083 60.8293 2.10891 61.0859 2.59863C61.3705 3.13365 61.4961 3.72804 61.4961 4.35156C61.4961 4.71046 61.4633 5.05643 61.3926 5.38477C61.323 5.72176 61.2088 6.04419 61.0449 6.34375C60.8813 6.64269 60.6733 6.91213 60.4277 7.15234C60.4097 7.17003 60.3896 7.1857 60.3711 7.20312L60.8662 8.08398L60.4678 9.41699L59.0781 6.94141C59.332 6.78125 59.5488 6.61328 59.7285 6.4375C59.9082 6.26172 60.0547 6.07031 60.168 5.86328C60.2812 5.65625 60.3633 5.42969 60.4141 5.18359C60.4688 4.93359 60.4961 4.65625 60.4961 4.35156ZM56.8164 3.41406C56.9922 3.41406 57.1445 3.44336 57.2734 3.50195C57.4062 3.55664 57.5156 3.63477 57.6016 3.73633C57.6914 3.83398 57.7578 3.95117 57.8008 4.08789C57.8477 4.22461 57.8711 4.375 57.8711 4.53906C57.8711 4.73438 57.8262 4.90234 57.7363 5.04297C57.6504 5.18359 57.5371 5.29883 57.3965 5.38867C57.2598 5.47852 57.1035 5.54492 56.9277 5.58789C56.7559 5.63086 56.5859 5.65234 56.418 5.65234H56.2773L56.3711 3.47266C56.4414 3.45312 56.5137 3.43945 56.5879 3.43164C56.6621 3.41992 56.7383 3.41406 56.8164 3.41406Z" fill="black" fill-opacity="0.1"/>
<path d="M54.3066 1.64453L54.3037 1.73926C54.1276 1.79078 53.949 1.84739 53.7695 1.91406C53.7461 2.36328 53.7305 2.80859 53.7227 3.25C53.7148 3.69141 53.707 4.13672 53.6992 4.58594C53.6948 4.75339 53.6908 4.92071 53.6865 5.08789L53.2881 5.10449L52.4277 5.13867L51.9834 10.6836L47.582 10.9131L47.5928 5.36035L46.9033 5.39746L46.3984 5.42383C46.3788 5.4005 46.3607 5.3758 46.3398 5.35352C46.1981 5.19886 46.0289 5.07096 45.834 4.9668L45.8496 4.37305L45.8574 4.0293C45.9695 4.06056 46.0799 4.09251 46.1875 4.12891L46.4102 1.75C46.2551 1.67601 46.0918 1.61424 45.9209 1.5625L45.9453 0.634766L54.3301 0.619141L54.3066 1.64453ZM46.9199 1.63281L46.8496 4.39844L48.5957 4.30469L48.584 9.85938L51.0566 9.73047L51.502 4.17578L53.248 4.10547L53.3066 1.62109L46.9199 1.63281Z" fill="black" fill-opacity="0.1"/>
<path d="M39.7383 4.28125C39.7383 3.68453 39.858 3.11442 40.1211 2.59375L40.123 2.58984C40.3709 2.10456 40.7042 1.68462 41.1221 1.34082C41.5323 1.00261 41.9979 0.747834 42.5088 0.574219C43.0158 0.402015 43.5404 0.316406 44.0781 0.316406C44.2967 0.316406 44.52 0.32531 44.7471 0.342773L44.7461 0.34375C44.9804 0.35797 45.2128 0.385239 45.4434 0.425781C45.6802 0.466779 45.9129 0.518237 46.1396 0.583008C46.3822 0.652309 46.6165 0.740578 46.8408 0.847656L47.4707 1.14844L47.4258 1.63184L46.9199 1.63281L46.8496 4.39844L47.168 4.38086L47.1338 4.74316C47.3799 5.02512 47.563 5.34889 47.6846 5.70312H47.6826C47.817 6.07955 47.8789 6.4759 47.8789 6.88281C47.8789 7.53286 47.7641 8.14907 47.5049 8.70703L47.5059 8.70801C47.2628 9.2354 46.9181 9.68832 46.4736 10.0537L46.4746 10.0547C46.0438 10.4119 45.5465 10.6709 44.998 10.8389L44.9971 10.8379C44.4633 11.0025 43.9013 11.082 43.3164 11.082C43.0383 11.082 42.7541 11.0453 42.4688 10.9824L42.4648 10.9814C42.2087 10.924 41.9506 10.8539 41.6904 10.7715L41.6836 10.7695L41.6758 10.7666C41.4258 10.6833 41.1829 10.5955 40.9473 10.5029L40.9365 10.499L40.9268 10.4951C40.7027 10.4014 40.4988 10.3114 40.3164 10.2266L39.668 9.92578L40.0996 5.87695C40.0515 5.77971 40.0081 5.67961 39.9688 5.57715L39.9668 5.57227C39.8112 5.16079 39.7383 4.7274 39.7383 4.28125ZM40.7383 4.28125C40.7383 4.61719 40.793 4.92969 40.9023 5.21875C41.0117 5.50391 41.1641 5.75195 41.3594 5.96289C41.5586 6.16992 41.7949 6.33203 42.0684 6.44922C42.3457 6.56641 42.6523 6.625 42.9883 6.625H43.1758C43.2539 6.625 43.3379 6.62891 43.4277 6.63672C43.5176 6.64453 43.6094 6.6582 43.7031 6.67773C43.7969 6.69336 43.8809 6.71875 43.9551 6.75391C44.0293 6.78516 44.0898 6.82812 44.1367 6.88281C44.1836 6.93359 44.207 6.99609 44.207 7.07031C44.207 7.17969 44.1738 7.26367 44.1074 7.32227C44.041 7.38086 43.959 7.42578 43.8613 7.45703C43.7676 7.48438 43.668 7.50195 43.5625 7.50977C43.457 7.51367 43.3672 7.51562 43.293 7.51562C42.9023 7.51562 42.5039 7.46484 42.0977 7.36328C41.6953 7.25781 41.3281 7.10547 40.9961 6.90625L40.7383 9.32031C40.9062 9.39844 41.0977 9.48242 41.3125 9.57227C41.5312 9.6582 41.7578 9.74023 41.9922 9.81836C42.2266 9.89258 42.457 9.95508 42.6836 10.0059C42.9141 10.0566 43.125 10.082 43.3164 10.082C43.8125 10.082 44.2754 10.0156 44.7051 9.88281C45.1387 9.75 45.5156 9.55078 45.8359 9.28516C46.1602 9.01953 46.4141 8.6875 46.5977 8.28906C46.7852 7.88672 46.8789 7.41797 46.8789 6.88281C46.8789 6.57031 46.832 6.28516 46.7383 6.02734C46.6484 5.76562 46.5156 5.54102 46.3398 5.35352C46.168 5.16602 45.957 5.01562 45.707 4.90234C45.457 4.78906 45.1758 4.72266 44.8633 4.70312C44.8008 4.69531 44.7207 4.69336 44.623 4.69727H44.3066C44.1934 4.69336 44.0781 4.68555 43.9609 4.67383C43.8477 4.66211 43.7422 4.64258 43.6445 4.61523C43.5508 4.58398 43.4727 4.54297 43.4102 4.49219C43.3516 4.4375 43.3203 4.36719 43.3164 4.28125C43.3125 4.20703 43.332 4.14258 43.375 4.08789C43.418 4.0332 43.4746 3.99023 43.5449 3.95898C43.6152 3.92383 43.6953 3.89648 43.7852 3.87695C43.875 3.85742 43.9629 3.84375 44.0488 3.83594C44.1387 3.82422 44.2227 3.81836 44.3008 3.81836C44.3828 3.81445 44.4492 3.8125 44.5 3.8125C44.7773 3.8125 45.0605 3.84375 45.3496 3.90625C45.6426 3.96484 45.9219 4.03906 46.1875 4.12891L46.4102 1.75C46.2383 1.66797 46.0566 1.59961 45.8652 1.54492C45.6738 1.49023 45.4766 1.44531 45.2734 1.41016C45.0742 1.375 44.873 1.35156 44.6699 1.33984C44.4668 1.32422 44.2695 1.31641 44.0781 1.31641C43.6484 1.31641 43.2324 1.38477 42.8301 1.52148C42.4277 1.6582 42.0703 1.85547 41.7578 2.11328C41.4492 2.36719 41.2012 2.67773 41.0137 3.04492C40.8301 3.4082 40.7383 3.82031 40.7383 4.28125Z" fill="black" fill-opacity="0.1"/>
<path d="M38.7695 0.669922L39 10.9521L34.0576 11.1895L34.0557 11H29.9434L30 8.88379C30.1431 8.70515 30.2664 8.50769 30.3672 8.28906C30.5547 7.88672 30.6484 7.41797 30.6484 6.88281C30.6484 6.57031 30.6016 6.28516 30.5078 6.02734C30.418 5.76562 30.2852 5.54102 30.1094 5.35352C30.105 5.34877 30.1001 5.34454 30.0957 5.33984L30.2217 0.71582L34.0283 0.891602L34.1201 0.896484L34.1221 0.547852L38.7695 0.669922ZM35.1074 6.09766H33.8066L33.9824 1.89062L31.1934 1.76172L30.9707 10H33.5957L33.6777 7.43359H35.0254L35.0488 10.1406L37.9785 10L37.791 1.64453L35.1191 1.57422L35.1074 6.09766Z" fill="black" fill-opacity="0.1"/>
<path d="M27.7246 6.75391C27.7988 6.78516 27.8594 6.82812 27.9062 6.88281C27.9531 6.93359 27.9766 6.99609 27.9766 7.07031C27.9766 7.17969 27.9434 7.26367 27.877 7.32227C27.8105 7.38086 27.7285 7.42578 27.6309 7.45703C27.5371 7.48438 27.4375 7.50195 27.332 7.50977C27.2266 7.51367 27.1367 7.51562 27.0625 7.51562C26.6719 7.51562 26.2734 7.46484 25.8672 7.36328C25.4648 7.25781 25.0977 7.10547 24.7656 6.90625L24.5078 9.32031L24.4863 9.36426L23.7637 6.86816L23.7715 6.7998L23.8691 5.87695C23.821 5.77971 23.7776 5.67961 23.7383 5.57715L23.7363 5.57227C23.5807 5.16079 23.5078 4.7274 23.5078 4.28125C23.5078 3.68453 23.6275 3.11442 23.8906 2.59375L23.8926 2.58984C24.1404 2.10456 24.4738 1.68462 24.8916 1.34082C25.3018 1.00261 25.7674 0.747834 26.2783 0.574219C26.7853 0.402015 27.31 0.316406 27.8477 0.316406C28.0662 0.316406 28.2896 0.32531 28.5166 0.342773L28.5156 0.34375C28.7499 0.35797 28.9823 0.385239 29.2129 0.425781C29.4498 0.466779 29.6824 0.518237 29.9092 0.583008C30.1517 0.652309 30.386 0.740578 30.6104 0.847656L31.2402 1.14844L30.9531 4.22168L30.9033 4.74316C30.9762 4.82665 31.0438 4.91331 31.1055 5.00391L30.9912 9.21777C30.7855 9.53213 30.5368 9.81232 30.2432 10.0537L30.2441 10.0547C29.8133 10.4119 29.316 10.6709 28.7676 10.8389L28.7666 10.8379C28.2328 11.0025 27.6708 11.082 27.0859 11.082C26.8078 11.082 26.5237 11.0453 26.2383 10.9824L26.2344 10.9814C25.9782 10.924 25.7201 10.8539 25.46 10.7715L25.4531 10.7695L25.4453 10.7666C25.1954 10.6833 24.9525 10.5955 24.7168 10.5029L24.7061 10.499L24.6963 10.4951C24.4723 10.4014 24.2683 10.3114 24.0859 10.2266L23.4375 9.92578L23.4688 9.63184L24.5254 9.49609L24.4863 9.36426L24.5078 9.32031C24.6758 9.39844 24.8672 9.48242 25.082 9.57227C25.3008 9.6582 25.5273 9.74023 25.7617 9.81836C25.9961 9.89258 26.2266 9.95508 26.4531 10.0059C26.6836 10.0566 26.8945 10.082 27.0859 10.082C27.582 10.082 28.0449 10.0156 28.4746 9.88281C28.9082 9.75 29.2852 9.55078 29.6055 9.28516C29.9297 9.01953 30.1836 8.6875 30.3672 8.28906C30.5547 7.88672 30.6484 7.41797 30.6484 6.88281C30.6484 6.57031 30.6016 6.28516 30.5078 6.02734C30.418 5.76562 30.2852 5.54102 30.1094 5.35352C29.9375 5.16602 29.7266 5.01562 29.4766 4.90234C29.2266 4.78906 28.9453 4.72266 28.6328 4.70312C28.5703 4.69531 28.4902 4.69336 28.3926 4.69727H28.0762C27.9629 4.69336 27.8477 4.68555 27.7305 4.67383C27.6172 4.66211 27.5117 4.64258 27.4141 4.61523C27.3203 4.58398 27.2422 4.54297 27.1797 4.49219C27.1211 4.4375 27.0898 4.36719 27.0859 4.28125C27.082 4.20703 27.1016 4.14258 27.1445 4.08789C27.1875 4.0332 27.2441 3.99023 27.3145 3.95898C27.3848 3.92383 27.4648 3.89648 27.5547 3.87695C27.6445 3.85742 27.7324 3.84375 27.8184 3.83594C27.9082 3.82422 27.9922 3.81836 28.0703 3.81836C28.1523 3.81445 28.2188 3.8125 28.2695 3.8125C28.5469 3.8125 28.8301 3.84375 29.1191 3.90625C29.4121 3.96484 29.6914 4.03906 29.957 4.12891L30.1797 1.75C30.0078 1.66797 29.8262 1.59961 29.6348 1.54492C29.4434 1.49023 29.2461 1.44531 29.043 1.41016C28.8438 1.375 28.6426 1.35156 28.4395 1.33984C28.2363 1.32422 28.0391 1.31641 27.8477 1.31641C27.418 1.31641 27.002 1.38477 26.5996 1.52148C26.1973 1.6582 25.8398 1.85547 25.5273 2.11328C25.2188 2.36719 24.9707 2.67773 24.7832 3.04492C24.5996 3.4082 24.5078 3.82031 24.5078 4.28125C24.5078 4.61719 24.5625 4.92969 24.6719 5.21875C24.7812 5.50391 24.9336 5.75195 25.1289 5.96289C25.3281 6.16992 25.5645 6.33203 25.8379 6.44922C26.1152 6.56641 26.4219 6.625 26.7578 6.625H26.9453C27.0234 6.625 27.1074 6.62891 27.1973 6.63672C27.2871 6.64453 27.3789 6.6582 27.4727 6.67773C27.5664 6.69336 27.6504 6.71875 27.7246 6.75391Z" fill="black" fill-opacity="0.1"/>
<path d="M24.8262 6.93945C24.8062 6.92795 24.7853 6.91808 24.7656 6.90625L24.5078 9.32031C24.6758 9.39844 24.8672 9.48242 25.082 9.57227C25.2652 9.64422 25.4543 9.71185 25.6484 9.77832L25.8105 10.3389L20.8779 10.9746L20.6523 10.1279L20.627 10.0322L20.6152 10.0869L20.4238 10.9531L15.3447 10.4551L15.4521 10.0938L16.2695 10.0586L16.4834 6.64355L18.2266 0.810547L22.9805 0.571289L24.8262 6.93945ZM18.9824 1.77344L16.6504 9.57812L19.6387 9.87109L19.9316 8.54688H21.2676L21.6191 9.87109L24.5254 9.49609L22.2402 1.60938L18.9824 1.77344ZM21.0566 6.75391H20.1777L20.6113 4.71484L21.0566 6.75391Z" fill="black" fill-opacity="0.1"/>
<path d="M17.873 0.457031L17.4736 6.81934L16.6504 9.57812L17.2969 9.64062L17.2676 10.1211L17.2109 11.0186L12.5918 11.2207L12.5967 10.2969H11.4443L11.4424 10.7949L6.72363 10.9375L6.75293 8.85156C6.88492 8.68148 6.99912 8.49443 7.09375 8.28906C7.28125 7.88672 7.375 7.41797 7.375 6.88281C7.375 6.57031 7.32812 6.28516 7.23438 6.02734C7.14453 5.76562 7.01172 5.54102 6.83594 5.35352C6.82583 5.34249 6.81409 5.33304 6.80371 5.32227L6.84668 2.38281L6.90625 1.75C6.88969 1.7421 6.87221 1.73616 6.85547 1.72852L6.86914 0.84668L11.5967 0.662109L12.1699 2.52246L12.9717 0.457031H17.873ZM13.6562 1.45703L12.0625 5.57031L10.8672 1.69141L7.85547 1.80859L7.73828 9.90625L10.4453 9.82422L10.457 6.02734L11.3828 9.29688H12.4141L13.6211 5.64062L13.5977 10.1758L16.2695 10.0586L16.8086 1.45703H13.6562Z" fill="black" fill-opacity="0.1"/>
<path d="M0.234375 4.28125C0.234375 3.68453 0.354052 3.11442 0.617188 2.59375L0.619141 2.58984C0.866984 2.10456 1.20034 1.68462 1.61816 1.34082C2.02835 1.00261 2.49396 0.747834 3.00488 0.574219C3.51185 0.402015 4.03653 0.316406 4.57422 0.316406C4.79279 0.316406 5.01614 0.32531 5.24316 0.342773L5.24219 0.34375C5.47649 0.35797 5.7089 0.385239 5.93945 0.425781C6.17633 0.466779 6.40899 0.518237 6.63574 0.583008C6.8783 0.652309 7.11256 0.740578 7.33691 0.847656L7.9668 1.14844L7.90527 1.80566L7.85547 1.80859L7.8457 2.44141L7.67969 4.22168L7.62988 4.74316C7.69404 4.81667 7.75412 4.89263 7.80957 4.97168L7.74805 9.16992C7.53665 9.50367 7.27812 9.8002 6.96973 10.0537L6.9707 10.0547C6.5399 10.4119 6.04261 10.6709 5.49414 10.8389L5.49316 10.8379C4.9594 11.0025 4.39741 11.082 3.8125 11.082C3.5344 11.082 3.25022 11.0453 2.96484 10.9824L2.96094 10.9814C2.7048 10.924 2.44665 10.8539 2.18652 10.7715L2.17969 10.7695L2.17188 10.7666C1.92193 10.6833 1.67903 10.5955 1.44336 10.5029L1.43262 10.499L1.42285 10.4951C1.19884 10.4014 0.994889 10.3114 0.8125 10.2266L0.164062 9.92578L0.595703 5.87695C0.547555 5.77971 0.504154 5.67961 0.464844 5.57715L0.462891 5.57227C0.307257 5.16079 0.234375 4.7274 0.234375 4.28125ZM1.23438 4.28125C1.23438 4.61719 1.28906 4.92969 1.39844 5.21875C1.50781 5.50391 1.66016 5.75195 1.85547 5.96289C2.05469 6.16992 2.29102 6.33203 2.56445 6.44922C2.8418 6.56641 3.14844 6.625 3.48438 6.625H3.67188C3.75 6.625 3.83398 6.62891 3.92383 6.63672C4.01367 6.64453 4.10547 6.6582 4.19922 6.67773C4.29297 6.69336 4.37695 6.71875 4.45117 6.75391C4.52539 6.78516 4.58594 6.82812 4.63281 6.88281C4.67969 6.93359 4.70312 6.99609 4.70312 7.07031C4.70312 7.17969 4.66992 7.26367 4.60352 7.32227C4.53711 7.38086 4.45508 7.42578 4.35742 7.45703C4.26367 7.48438 4.16406 7.50195 4.05859 7.50977C3.95312 7.51367 3.86328 7.51562 3.78906 7.51562C3.39844 7.51562 3 7.46484 2.59375 7.36328C2.19141 7.25781 1.82422 7.10547 1.49219 6.90625L1.23438 9.32031C1.40234 9.39844 1.59375 9.48242 1.80859 9.57227C2.02734 9.6582 2.25391 9.74023 2.48828 9.81836C2.72266 9.89258 2.95312 9.95508 3.17969 10.0059C3.41016 10.0566 3.62109 10.082 3.8125 10.082C4.30859 10.082 4.77148 10.0156 5.20117 9.88281C5.63477 9.75 6.01172 9.55078 6.33203 9.28516C6.65625 9.01953 6.91016 8.6875 7.09375 8.28906C7.28125 7.88672 7.375 7.41797 7.375 6.88281C7.375 6.57031 7.32812 6.28516 7.23438 6.02734C7.14453 5.76562 7.01172 5.54102 6.83594 5.35352C6.66406 5.16602 6.45312 5.01562 6.20312 4.90234C5.95312 4.78906 5.67188 4.72266 5.35938 4.70312C5.29688 4.69531 5.2168 4.69336 5.11914 4.69727H4.80273C4.68945 4.69336 4.57422 4.68555 4.45703 4.67383C4.34375 4.66211 4.23828 4.64258 4.14062 4.61523C4.04688 4.58398 3.96875 4.54297 3.90625 4.49219C3.84766 4.4375 3.81641 4.36719 3.8125 4.28125C3.80859 4.20703 3.82812 4.14258 3.87109 4.08789C3.91406 4.0332 3.9707 3.99023 4.04102 3.95898C4.11133 3.92383 4.19141 3.89648 4.28125 3.87695C4.37109 3.85742 4.45898 3.84375 4.54492 3.83594C4.63477 3.82422 4.71875 3.81836 4.79688 3.81836C4.87891 3.81445 4.94531 3.8125 4.99609 3.8125C5.27344 3.8125 5.55664 3.84375 5.8457 3.90625C6.13867 3.96484 6.41797 4.03906 6.68359 4.12891L6.90625 1.75C6.73438 1.66797 6.55273 1.59961 6.36133 1.54492C6.16992 1.49023 5.97266 1.44531 5.76953 1.41016C5.57031 1.375 5.36914 1.35156 5.16602 1.33984C4.96289 1.32422 4.76562 1.31641 4.57422 1.31641C4.14453 1.31641 3.72852 1.38477 3.32617 1.52148C2.92383 1.6582 2.56641 1.85547 2.25391 2.11328C1.94531 2.36719 1.69727 2.67773 1.50977 3.04492C1.32617 3.4082 1.23438 3.82031 1.23438 4.28125Z" fill="black" fill-opacity="0.1"/>
</svg>
